<svg width="64" height="64" viewBox="0 0 64 64" fill="none" xmlns="http://www.w3.org/2000/svg">
<path d="M40 58C40 58 52 58 52 44H56.4C57.3548 44 58.2705 43.6207 58.9456 42.9456C59.6207 42.2705 60 41.3548 60 40.4V29.6C60 28.6452 59.6207 27.7295 58.9456 27.0544C58.2705 26.3793 57.3548 26 56.4 26H52V22C52 10.955 44.045 2 33 2H31C19.953 2 12 10.955 12 22V26H7.6C6.64522 26 5.72955 26.3793 5.05442 27.0544C4.37928 27.7295 4 28.6452 4 29.6V40.4C4 41.3548 4.37928 42.2705 5.05442 42.9456C5.72955 43.6207 6.64522 44 7.6 44H10" stroke="#666666" stroke-width="2" stroke-miterlimit="10" stroke-linecap="round" stroke-linejoin="round"/>
<path d="M40 58C40 56.9391 39.5786 55.9217 38.8284 55.1716C38.0783 54.4214 37.0609 54 36 54H32C30.9391 54 29.9217 54.4214 29.1716 55.1716C28.4214 55.9217 28 56.9391 28 58C28 59.0609 28.4214 60.0783 29.1716 60.8284C29.9217 61.5786 30.9391 62 32 62H36C37.0609 62 38.0783 61.5786 38.8284 60.8284C39.5786 60.0783 40 59.0609 40 58Z" stroke="#666666" stroke-width="2" stroke-miterlimit="10" stroke-linecap="round" stroke-linejoin="round"/>
<path d="M40 24L34 38H48M44 32V44M18 25.55C19.127 24.5458 20.5911 24.0033 22.1004 24.0307C23.6096 24.0581 25.0531 24.6534 26.1429 25.6978C27.2327 26.7422 27.8889 28.159 27.9804 29.6657C28.072 31.1724 27.5923 32.6583 26.637 33.827L18 44H30" stroke="#666666" stroke-width="2" stroke-miterlimit="10" stroke-linecap="round" stroke-linejoin="round"/>
</svg>
