<svg width="64" height="64" viewBox="0 0 64 64" fill="none" xmlns="http://www.w3.org/2000/svg">
<path d="M48 15L38 5L28 15M38 33V5V33Z" stroke="#666666" stroke-width="2" stroke-miterlimit="10" stroke-linecap="round" stroke-linejoin="round"/>
<path d="M4 7H10L18 43H60" stroke="#666666" stroke-width="2" stroke-miterlimit="10" stroke-linecap="round" stroke-linejoin="round"/>
<path d="M24 59C26.2091 59 28 57.2091 28 55C28 52.7909 26.2091 51 24 51C21.7909 51 20 52.7909 20 55C20 57.2091 21.7909 59 24 59Z" stroke="#666666" stroke-width="2" stroke-miterlimit="10" stroke-linecap="round" stroke-linejoin="round"/>
<path d="M50 59C52.2091 59 54 57.2091 54 55C54 52.7909 52.2091 51 50 51C47.7909 51 46 52.7909 46 55C46 57.2091 47.7909 59 50 59Z" stroke="#666666" stroke-width="2" stroke-miterlimit="10" stroke-linecap="round" stroke-linejoin="round"/>
</svg>
