<svg xmlns="http://www.w3.org/2000/svg" fill="none" viewBox="0 0 30 30" width="30" height="30">
<path clip-rule="evenodd" fill="#666666" fill-rule="evenodd" d="M 9.21967 20.0314 C 8.92678 20.3243 8.92678 20.7991 9.21967 21.092 C 9.51256 21.3849 9.98744 21.3849 10.2803 21.092 L 15.1497 16.2226 L 20.0314 21.1042 C 20.3243 21.3971 20.7991 21.3971 21.092 21.1042 C 21.3849 20.8113 21.3849 20.3365 21.092 20.0436 L 16.2104 15.1619 L 21.092 10.2803 C 21.3849 9.98744 21.3849 9.51256 21.092 9.21967 C 20.7991 8.92678 20.3243 8.92678 20.0314 9.21967 L 15.1497 14.1013 L 10.2803 9.2319 C 9.98745 8.939 9.51258 8.939 9.21969 9.2319 C 8.92679 9.52479 8.92679 9.99966 9.21969 10.2926 L 14.0891 15.1619 L 9.21967 20.0314 Z" />
</svg>