<svg width="40" height="40" viewBox="0 0 40 40" fill="none" 
    xmlns="http://www.w3.org/2000/svg">
    <g clip-path="url(#clip0)">
        <circle cx="27.5" cy="12.5" r="27.5" fill="white"/>
        <path fill-rule="evenodd" clip-rule="evenodd" d="M17.2197 22.0314C16.9268 22.3243 16.9268 22.7991 17.2197 23.092C17.5126 23.3849 17.9874 23.3849 18.2803 23.092L23.1497 18.2226L28.0314 23.1042C28.3243 23.3971 28.7991 23.3971 29.092 23.1042C29.3849 22.8113 29.3849 22.3365 29.092 22.0436L24.2104 17.1619L29.092 12.2803C29.3849 11.9874 29.3849 11.5126 29.092 11.2197C28.7991 10.9268 28.3243 10.9268 28.0314 11.2197L23.1497 16.1013L18.2803 11.2319C17.9875 10.939 17.5126 10.939 17.2197 11.2319C16.9268 11.5248 16.9268 11.9997 17.2197 12.2926L22.0891 17.1619L17.2197 22.0314Z" fill="#666666"/>
    </g>
    <defs>
        <clipPath id="clip0">
            <path d="M0 0H40V40H0V0Z" fill="white"/>
        </clipPath>
    </defs>
</svg>
