<svg width="140" height="40" viewBox="0 0 140 40" fill="none" xmlns="http://www.w3.org/2000/svg">
<path fill-rule="evenodd" clip-rule="evenodd" d="M44.4366 23.1085V24.7574H48.4136C48.3515 25.5343 48.0271 26.2674 47.4932 26.8376C46.6886 27.653 45.5752 28.0921 44.4278 28.0465C42.0131 28.0108 40.0744 26.0525 40.0744 23.6492C40.0744 21.2458 42.0131 19.2876 44.4278 19.2518C45.5486 19.2338 46.6309 19.6588 47.4375 20.4335L48.6073 19.2703C47.507 18.1615 46.0024 17.5435 44.4366 17.5571C42.2091 17.4728 40.1135 18.6073 38.9745 20.5143C37.8356 22.4213 37.8356 24.7954 38.9745 26.7023C40.1135 28.6093 42.2091 29.7438 44.4366 29.6595C46.031 29.731 47.5786 29.1127 48.6807 27.9638C49.6449 26.9094 50.1597 25.5234 50.1165 24.0984C50.1196 23.751 50.0888 23.4042 50.0246 23.0627L44.4366 23.1085ZM54.6462 21.9082C52.4867 21.9136 50.7399 23.6592 50.7435 25.8083C50.7471 27.9574 52.4997 29.6972 54.6593 29.6954C56.8188 29.6936 58.5685 27.9509 58.5685 25.8018C58.5835 24.7613 58.1735 23.7592 57.4322 23.0252C56.6909 22.2911 55.682 21.888 54.6365 21.9082H54.6462ZM59.3227 25.8141C59.3158 23.6661 61.0582 21.9184 63.2165 21.9082C64.2619 21.8883 65.2706 22.2915 66.0116 23.0255C66.7527 23.7595 67.1626 24.7614 67.1476 25.8018C67.1476 27.9498 65.3997 29.692 63.2413 29.6954C61.0829 29.6988 59.3295 27.962 59.3227 25.8141ZM60.9083 26.8273C61.3285 27.7029 62.2438 28.2338 63.2165 28.1663C63.8273 28.1523 64.4065 27.8933 64.8226 27.4481C65.2387 27.0028 65.4563 26.4092 65.4261 25.8019C65.4233 24.8316 64.8249 23.9615 63.917 23.6078C63.0091 23.2541 61.9761 23.4885 61.3122 24.199C60.6482 24.9096 60.488 25.9518 60.9083 26.8273ZM52.3322 26.8339C52.7553 27.7089 53.6731 28.2373 54.6462 28.1661H54.6365C55.2474 28.1524 55.8269 27.8935 56.2432 27.4483C56.6595 27.003 56.8773 26.4092 56.847 25.8017C56.844 24.8307 56.2444 23.9603 55.3354 23.6073C54.4264 23.2543 53.393 23.4906 52.7299 24.203C52.0668 24.9154 51.9091 25.9589 52.3322 26.8339ZM82.7975 21.9092C84.3237 21.9651 85.6568 22.9525 86.1486 24.3914L86.3413 24.8031L81.1034 26.9563C81.4318 27.7004 82.184 28.169 83 28.138C83.7878 28.1401 84.5186 27.7297 84.924 27.0575L86.2591 27.9735C85.5326 29.0562 84.3082 29.7034 83 29.6964C81.9602 29.7117 80.9589 29.3055 80.2261 28.5712C79.4933 27.8368 79.0922 26.8375 79.1149 25.8028C79.0514 24.7918 79.4111 23.7998 80.1088 23.0622C80.8064 22.3246 81.7797 21.9072 82.7975 21.9092ZM80.808 25.6918C80.7704 25.1193 80.9659 24.5558 81.3505 24.1284C81.7351 23.701 82.2764 23.4456 82.8523 23.4199C83.4588 23.381 84.0319 23.7051 84.3068 24.2444L80.809 25.6918H80.808ZM78.2776 29.4668H76.5562H76.5552V18.0146H78.2776V29.4668ZM73.7391 22.7793H73.6746C73.15 22.1952 72.3999 21.8616 71.6127 21.8623C69.5252 21.9661 67.8862 23.6808 67.8862 25.7608C67.8862 27.8408 69.5252 29.5554 71.6127 29.6593C72.4024 29.6721 73.1574 29.3364 73.6746 28.7423H73.7293V29.302C73.7293 30.7952 72.9283 31.5925 71.6401 31.5925C70.762 31.5718 69.9836 31.0248 69.6701 30.2083L68.1697 30.8313C68.7474 32.2302 70.1203 33.1402 71.6401 33.1314C73.656 33.1314 75.3217 31.9497 75.3217 29.0723V22.1378H73.7391V22.7783V22.7793ZM71.7662 28.1658L71.7692 28.1661H71.7594L71.7662 28.1658ZM73.3174 27.4309C72.9223 27.8759 72.3621 28.1412 71.7662 28.1658C70.537 28.0559 69.5948 27.0307 69.5948 25.8021C69.5948 24.5726 70.5385 23.5467 71.7692 23.4382C72.3639 23.4688 72.921 23.7369 73.3143 24.1818C73.7076 24.6267 73.9038 25.2108 73.8585 25.8017C73.9094 26.3955 73.7139 26.9842 73.3174 27.4309ZM94.2122 18.0147H90.0972V29.4668H91.8187V25.1244H94.222C95.558 25.2178 96.8348 24.5614 97.5314 23.423C98.228 22.2846 98.228 20.8545 97.5314 19.7161C96.8348 18.5776 95.558 17.9212 94.222 18.0147H94.2122ZM91.8099 23.5113H94.2122L94.2494 23.5395C95.34 23.5395 96.2242 22.6596 96.2242 21.5742C96.2242 20.4888 95.34 19.6089 94.2494 19.6089H91.8099V23.5113ZM104.827 21.8624C103.546 21.7863 102.342 22.4738 101.761 23.6126L103.289 24.2453C103.597 23.6807 104.212 23.3498 104.854 23.4014C105.296 23.3499 105.74 23.4772 106.086 23.7547C106.432 24.0322 106.652 24.4367 106.696 24.8771V24.9958C106.143 24.7043 105.526 24.5532 104.9 24.5558C103.253 24.5558 101.586 25.4718 101.586 27.1305C101.619 27.8448 101.941 28.5156 102.479 28.9901C103.016 29.4646 103.724 29.7025 104.44 29.6497C105.324 29.7128 106.171 29.2909 106.65 28.5497H106.705V29.4667H108.362V25.0601C108.362 23.0539 106.834 21.8897 104.873 21.8897L104.827 21.8624ZM103.272 27.1674C103.272 27.8546 104.054 28.1379 104.615 28.1379L104.661 28.1661C105.699 28.1408 106.559 27.3589 106.677 26.3332C106.2 26.068 105.659 25.9352 105.112 25.9487C104.247 25.9487 103.272 26.2504 103.272 27.1674ZM114.401 22.1379L112.431 27.1023H112.376L110.332 22.1379H108.491L111.556 29.0822L109.807 32.9388H111.602L116.316 22.1379H114.401ZM100.648 29.4668H98.9268V18.0146H100.648V29.4668Z" fill="white"/>
<path d="M10.1487 8.84966C9.87321 9.19664 9.74114 9.64344 9.78157 10.0919V28.9504C9.75562 29.3861 9.89306 29.8149 10.1651 30.1505L10.2227 30.2106L20.5263 19.6498V19.4014L10.2064 8.78955L10.1487 8.84966Z" fill="#5BC9F4"/>
<path d="M24.0958 23.3946L20.5263 20.0987V19.8674L24.0958 16.5789L24.1735 16.619L28.4155 18.8377C29.6259 19.4682 29.6259 20.5053 28.4155 21.1442L24.1905 23.362L24.0958 23.3946Z" fill="url(#paint0_linear)"/>
<path d="M23.4501 23.015L19.9884 19.5L9.77441 29.8726C10.2568 30.3039 10.9747 30.3244 11.4807 29.9223L23.4586 23.016" fill="url(#paint1_linear)"/>
<path d="M23.4586 15.9854L11.4808 9.07763C10.9725 8.67562 10.2598 8.69636 9.77441 9.12728L19.9967 19.5001L23.4586 15.9854Z" fill="url(#paint2_linear)"/>
<path fill-rule="evenodd" clip-rule="evenodd" d="M39.712 13.1838H39.0977V15.3597H39.8963V13.8611H44.4593V15.3597H45.2579V13.1838H44.5646V7.81592H40.5281L40.529 9.01818C40.5292 9.82338 40.4511 10.6268 40.296 11.418C40.2219 11.7821 40.1361 12.117 40.0367 12.4218C39.9372 12.7266 39.829 12.9806 39.712 13.1838ZM43.731 8.49316V13.1837H40.6246C40.734 12.957 40.8237 12.7219 40.8928 12.4809C40.9776 12.1987 41.0527 11.8902 41.1209 11.5534C41.2644 10.8322 41.3362 10.0995 41.3354 9.36523V8.49316H43.731ZM48.1293 13.9541C47.7666 13.9541 47.4497 13.8967 47.1767 13.781C46.9132 13.671 46.6781 13.5062 46.4884 13.2984C46.2982 13.0872 46.1548 12.8407 46.0672 12.574C45.9714 12.2839 45.924 11.981 45.9267 11.6765C45.9267 11.3548 45.9735 11.0547 46.0672 10.7744C46.1608 10.495 46.3012 10.2532 46.4884 10.0462C46.6756 9.84022 46.9047 9.67841 47.1767 9.55988C47.4497 9.44135 47.7666 9.38208 48.1293 9.38208C48.4862 9.38208 48.8021 9.44135 49.077 9.55988C49.352 9.67841 49.5831 9.84022 49.7703 10.0462C49.9575 10.2532 50.0979 10.495 50.1915 10.7744C50.2851 11.0547 50.3319 11.3548 50.3319 11.6765C50.3319 11.9983 50.2851 12.2974 50.1915 12.574C50.0979 12.8506 49.9575 13.0914 49.7703 13.2984C49.5831 13.5044 49.352 13.6653 49.077 13.781C48.7769 13.9012 48.4542 13.9602 48.1293 13.9541ZM48.6782 13.2175C48.5047 13.2909 48.3223 13.3276 48.1293 13.3276C47.7482 13.3283 47.3846 13.1731 47.1289 12.9005C47.0002 12.7612 46.8998 12.59 46.8257 12.384C46.7526 12.177 46.7165 11.9419 46.7165 11.6766C46.7165 11.4113 46.7526 11.1761 46.8267 10.9701C46.8998 10.7631 47.0002 10.59 47.1289 10.4489C47.2531 10.311 47.4072 10.2011 47.5804 10.1272C47.7533 10.0537 47.9403 10.0162 48.1293 10.0171C48.3182 10.0162 48.5053 10.0537 48.6782 10.1272C48.8514 10.2011 49.0055 10.311 49.1297 10.4489C49.2652 10.6014 49.3683 10.7782 49.4329 10.9691C49.506 11.1761 49.5421 11.4113 49.5421 11.6766C49.5421 11.9419 49.506 12.177 49.4319 12.384C49.3588 12.5891 49.2584 12.7612 49.1297 12.8995C49.001 13.0388 48.8508 13.1441 48.6782 13.2175ZM53.2823 13.9541C52.9371 13.9541 52.632 13.9004 52.3658 13.7932C52.1097 13.6929 51.8813 13.5363 51.6989 13.336C51.5157 13.1309 51.3779 12.8917 51.2942 12.6333C51.2003 12.34 51.1546 12.0343 51.1587 11.7273C51.1587 11.4 51.2026 11.0942 51.2903 10.8092C51.3781 10.5232 51.5107 10.2758 51.6901 10.0632C51.8685 9.85151 52.0898 9.68594 52.356 9.56458C52.6232 9.44229 52.9371 9.38208 53.2998 9.38208C53.5572 9.38208 53.7981 9.41124 54.0233 9.47145C54.2495 9.53072 54.4474 9.62197 54.62 9.74615C54.7936 9.87032 54.9349 10.0265 55.0461 10.2165C55.1572 10.4047 55.2274 10.6295 55.2567 10.8891H54.4845C54.426 10.6126 54.3031 10.3981 54.1159 10.2457C53.9287 10.0933 53.6772 10.0171 53.3613 10.0171C53.0922 10.0171 52.8669 10.0651 52.6856 10.161C52.5103 10.2514 52.3609 10.3823 52.2507 10.542C52.1435 10.7001 52.0655 10.8816 52.0187 11.0876C51.9714 11.2978 51.9479 11.5123 51.9485 11.7273C51.9485 11.9305 51.9728 12.1281 52.0226 12.32C52.0733 12.5119 52.1503 12.6822 52.2556 12.8318C52.3609 12.9823 52.4964 13.1018 52.6641 13.1921C52.8299 13.2824 53.0337 13.3275 53.2735 13.3275C53.6421 13.3275 53.9297 13.2344 54.1384 13.0481C54.346 12.8619 54.4728 12.5994 54.5196 12.2607H55.283C55.2011 12.8082 54.9934 13.2269 54.66 13.5185C54.3265 13.8092 53.8673 13.9541 53.2823 13.9541ZM55.7852 10.1186H57.4086V13.8609H58.1544V10.1186H59.7778V9.48364H55.7852V10.1186ZM61.0346 15.605C60.9469 15.605 60.8591 15.5994 60.7714 15.5881C60.6846 15.577 60.5993 15.5572 60.5169 15.5288V14.8684L60.7314 14.9362C60.8039 14.9586 60.8795 14.9701 60.9556 14.97C61.0867 14.976 61.2162 14.9403 61.3242 14.8684C61.428 14.7886 61.512 14.6873 61.5699 14.5721L61.877 13.8355L60.0781 9.48364H60.9205L62.2456 13.065H62.2631L63.5355 9.48364H64.3253L62.3509 14.4366C62.2631 14.6511 62.1773 14.8317 62.0915 14.9785C62.0174 15.1114 61.9227 15.2326 61.8107 15.3378C61.7132 15.4282 61.5969 15.4974 61.4695 15.541C61.3293 15.5858 61.1823 15.6074 61.0346 15.605ZM68.8552 9.48364H65.1521V13.8609H65.898V10.1186H68.1093V13.8609H68.8552V9.48364ZM70.1735 9.48364H70.9193V11.2278H73.2184V9.48364H73.9643V13.8609H73.2184V11.8458H70.9193V13.8609H70.1735V9.48364ZM76.2868 13.781C76.5598 13.8967 76.8767 13.9541 77.2394 13.9541C77.5643 13.9602 77.887 13.9012 78.1871 13.781C78.4621 13.6653 78.6932 13.5044 78.8804 13.2984C79.0676 13.0914 79.208 12.8506 79.3016 12.574C79.3952 12.2974 79.442 11.9983 79.442 11.6765C79.442 11.3548 79.3952 11.0547 79.3016 10.7744C79.208 10.495 79.0676 10.2532 78.8804 10.0462C78.6932 9.84022 78.4621 9.67841 78.1871 9.55988C77.9122 9.44135 77.5963 9.38208 77.2394 9.38208C76.8767 9.38208 76.5598 9.44135 76.2878 9.55988C76.0148 9.67841 75.7857 9.84022 75.5985 10.0462C75.4113 10.2532 75.2709 10.495 75.1773 10.7744C75.0837 11.0547 75.0369 11.3548 75.0369 11.6765C75.0341 11.981 75.0815 12.2839 75.1773 12.574C75.2649 12.8407 75.4083 13.0872 75.5985 13.2984C75.7882 13.5062 76.0233 13.671 76.2868 13.781ZM77.2394 13.3276C77.4324 13.3276 77.6148 13.2909 77.7883 13.2175C77.9609 13.1441 78.1111 13.0388 78.2398 12.8995C78.3685 12.7612 78.4689 12.5891 78.542 12.384C78.6161 12.177 78.6522 11.9419 78.6522 11.6766C78.6522 11.4113 78.6161 11.1761 78.543 10.9691C78.4784 10.7782 78.3753 10.6014 78.2398 10.4489C78.1156 10.311 77.9615 10.2011 77.7883 10.1272C77.6154 10.0537 77.4284 10.0162 77.2394 10.0171C77.0504 10.0162 76.8634 10.0537 76.6905 10.1272C76.5173 10.2011 76.3632 10.311 76.239 10.4489C76.1103 10.59 76.0099 10.7631 75.9368 10.9701C75.8627 11.1761 75.8266 11.4113 75.8266 11.6766C75.8266 11.9419 75.8627 12.177 75.9358 12.384C76.0099 12.59 76.1103 12.7612 76.239 12.9005C76.3677 13.0388 76.5179 13.1441 76.6905 13.2175C76.864 13.2909 77.0463 13.3276 77.2394 13.3276ZM85.2462 9.48364H83.149V13.8609H85.6148C85.8038 13.8628 85.9914 13.8299 86.1676 13.764C86.3373 13.6981 86.4835 13.6097 86.6064 13.4968C86.7305 13.3825 86.8279 13.2439 86.8921 13.0904C86.9594 12.9324 86.9925 12.7602 86.9925 12.574C86.9925 12.2805 86.9155 12.0406 86.7604 11.8543C86.6044 11.668 86.3958 11.5495 86.1325 11.4987V11.4902C86.3431 11.3943 86.5069 11.2729 86.6239 11.1262C86.7409 10.9794 86.7994 10.7875 86.7994 10.5504C86.7994 10.3303 86.7556 10.1497 86.6678 10.0086C86.5801 9.86746 86.4631 9.75834 86.3168 9.68308C86.1706 9.60594 86.0058 9.5542 85.8215 9.52598C85.6363 9.49775 85.4451 9.48364 85.2462 9.48364ZM85.4744 13.2514C85.7201 13.2514 85.9054 13.1827 86.0321 13.0444C86.1602 12.8995 86.2274 12.7136 86.2203 12.5233C86.2282 12.3443 86.1545 12.171 86.0185 12.0491C85.8839 11.9306 85.6587 11.8713 85.3428 11.8713H83.8861V13.2514H85.4744ZM85.8381 11.1093C85.7133 11.2221 85.489 11.2786 85.1673 11.2786H83.8861V10.0933H85.1673C85.4949 10.0933 85.7201 10.1422 85.843 10.241C85.9686 10.3456 86.0367 10.5006 86.0272 10.6605C86.0346 10.8295 85.9656 10.9932 85.8381 11.1093Z" fill="white"/>
<defs>
<linearGradient id="paint0_linear" x1="27.6296" y1="11.8922" x2="6.73456" y2="11.8922" gradientUnits="userSpaceOnUse">
<stop stop-color="#FEE000"/>
<stop offset="0.42" stop-color="#FBBC0E"/>
<stop offset="0.78" stop-color="#FAA418"/>
<stop offset="1" stop-color="#F99B1C"/>
</linearGradient>
<linearGradient id="paint1_linear" x1="7.37345" y1="17.1894" x2="0.317496" y2="37.4326" gradientUnits="userSpaceOnUse">
<stop stop-color="#EF4547"/>
<stop offset="1" stop-color="#C6186D"/>
</linearGradient>
<linearGradient id="paint2_linear" x1="-1.23097" y1="2.011" x2="4.53611" y2="18.5356" gradientUnits="userSpaceOnUse">
<stop stop-color="#279E6F"/>
<stop offset="0.04" stop-color="#2BA06F"/>
<stop offset="0.46" stop-color="#53B26C"/>
<stop offset="0.8" stop-color="#6BBD6A"/>
<stop offset="1" stop-color="#74C169"/>
</linearGradient>
</defs>
</svg>
